SplineFontDB: 3.2
FontName: FivePixelsFont
FullName: Five Pixels Font
FamilyName: FivePixelsFont
Weight: Medium
Copyright: (c) - 2024 Mounir Tohami (Whales State) https://mounirtohami.itch.io
Version: 001.000
ItalicAngle: 0
UnderlinePosition: -148
UnderlineWidth: 49
Ascent: 1000
Descent: 0
InvalidEm: 0
sfntRevision: 0x00010000
LayerCount: 2
Layer: 0 1 "Back" 1
Layer: 1 1 "Fore" 0
XUID: [1021 465 1097079576 27012]
StyleMap: 0x0040
FSType: 0
OS2Version: 1
OS2_WeightWidthSlopeOnly: 0
OS2_UseTypoMetrics: 0
CreationTime: 1280473793
ModificationTime: 1710294887
PfmFamily: 17
TTFWeight: 500
TTFWidth: 5
LineGap: 400
VLineGap: 0
Panose: 2 0 6 3 0 0 0 0 0 0
OS2TypoAscent: 1000
OS2TypoAOffset: 0
OS2TypoDescent: 0
OS2TypoDOffset: 0
OS2TypoLinegap: 400
OS2WinAscent: 1000
OS2WinAOffset: 0
OS2WinDescent: 400
OS2WinDOffset: 0
HheadAscent: 1000
HheadAOffset: 0
HheadDescent: 0
HheadDOffset: 0
OS2SubXSize: 649
OS2SubYSize: 699
OS2SubXOff: 0
OS2SubYOff: 140
OS2SupXSize: 649
OS2SupYSize: 699
OS2SupXOff: 0
OS2SupYOff: 479
OS2StrikeYSize: 50
OS2StrikeYPos: 259
OS2Vendor: '2ttf'
OS2CodePages: 00000001.00000000
OS2UnicodeRanges: 00000003.00000000.00000000.00000000
MarkAttachClasses: 1
DEI: 91125
ShortTable: cvt  2
  34
  648
EndShort
ShortTable: maxp 16
  1
  0
  99
  39
  9
  0
  0
  2
  0
  1
  1
  0
  64
  46
  0
  0
EndShort
LangName: 1033 "" "" "" "MounirTohami:FivePixelsFont" "" "Version 001.000" "" "" "" "Mounir Tohami" "This font was created using PixelForge and Edited with FontForge for final release." "https://mounirtohami.itch.io/five-pixels-font" "https://mounirtohami.itch.io" "SIL Open Font License (OFL)" "https://openfontlicense.org/"
GaspTable: 1 65535 0 0
Encoding: UnicodeBmp
UnicodeInterp: none
NameList: AGL For New Fonts
DisplaySize: -36
AntiAlias: 1
FitToEm: 0
WinInfo: 0 51 17
BeginPrivate: 0
EndPrivate
BeginChars: 65539 99

StartChar: .notdef
Encoding: 65536 -1 0
Width: 1168
GlyphClass: 1
Flags: W
LayerCount: 2
Fore
SplineSet
106 0 m 1,0,-1
 106 2131 l 1,1,-1
 956 2131 l 1,2,-1
 956 0 l 1,3,-1
 106 0 l 1,0,-1
212 106 m 1,4,-1
 850 106 l 1,5,-1
 850 2025 l 1,6,-1
 212 2025 l 1,7,-1
 212 106 l 1,4,-1
EndSplineSet
EndChar

StartChar: exclam
Encoding: 33 33 4
Width: 400
GlyphClass: 2
Flags: W
LayerCount: 2
Fore
SplineSet
0 0 m 1,0,-1
 0 200 l 1,1,-1
 200 200 l 1,2,-1
 200 0 l 1,3,-1
 0 0 l 1,0,-1
0 400 m 1,4,5
 0 400 0 400 0 1000 c 1,6,-1
 200 1000 l 1,7,-1
 200 400 l 1,8,-1
 0 400 l 1,4,5
EndSplineSet
EndChar

StartChar: quotedbl
Encoding: 34 34 5
Width: 800
GlyphClass: 2
Flags: W
LayerCount: 2
Fore
SplineSet
400 600 m 1,0,1
 400 600 400 600 400 1000 c 1,2,-1
 600 1000 l 1,3,-1
 600 600 l 1,4,-1
 400 600 l 1,0,1
0 600 m 1,5,6
 0 600 0 600 0 1000 c 1,7,-1
 200 1000 l 1,8,9
 200 1000 200 1000 200 600 c 1,10,-1
 0 600 l 1,5,6
EndSplineSet
EndChar

StartChar: numbersign
Encoding: 35 35 6
Width: 1200
GlyphClass: 2
Flags: W
LayerCount: 2
Fore
SplineSet
600 0 m 1,0,-1
 600 200 l 1,1,-1
 400 200 l 1,2,-1
 400 0 l 1,3,-1
 200 0 l 1,4,-1
 200 200 l 1,5,-1
 0 200 l 1,6,-1
 0 400 l 1,7,-1
 200 400 l 1,8,-1
 200 600 l 1,9,-1
 0 600 l 1,10,-1
 0 800 l 1,11,-1
 200 800 l 1,12,-1
 200 1000 l 1,13,-1
 400 1000 l 1,14,-1
 400 800 l 1,15,-1
 600 800 l 1,16,-1
 600 1000 l 1,17,-1
 800 1000 l 1,18,-1
 800 800 l 1,19,-1
 1000 800 l 1,20,-1
 1000 600 l 1,21,-1
 800 600 l 1,22,-1
 800 400 l 1,23,-1
 1000 400 l 1,24,-1
 1000 200 l 1,25,-1
 800 200 l 1,26,-1
 800 0 l 1,27,-1
 600 0 l 1,0,-1
600 400 m 1,28,-1
 600 600 l 1,29,-1
 400 600 l 1,30,-1
 400 400 l 1,31,-1
 600 400 l 1,28,-1
EndSplineSet
EndChar

StartChar: dollar
Encoding: 36 36 7
Width: 800
GlyphClass: 2
Flags: W
LayerCount: 2
Fore
SplineSet
0 0 m 1,0,-1
 0 200 l 1,1,-1
 200 200 l 1,2,-1
 200 400 l 1,3,-1
 0 400 l 1,4,5
 0 400 0 400 0 800 c 1,6,-1
 200 800 l 1,7,-1
 200 1000 l 1,8,-1
 400 1000 l 1,9,-1
 400 800 l 1,10,-1
 600 800 l 1,11,-1
 600 600 l 1,12,-1
 400 600 l 1,13,-1
 400 400 l 1,14,-1
 600 400 l 1,15,16
 600 400 600 400 600 0 c 1,17,-1
 0 0 l 1,0,-1
EndSplineSet
EndChar

StartChar: percent
Encoding: 37 37 8
Width: 800
GlyphClass: 2
Flags: W
LayerCount: 2
Fore
SplineSet
400 0 m 1,0,-1
 400 200 l 1,1,-1
 600 200 l 1,2,-1
 600 0 l 1,3,-1
 400 0 l 1,0,-1
0 0 m 1,4,5
 0 0 0 0 0 400 c 1,6,-1
 200 400 l 1,7,-1
 200 0 l 1,8,-1
 0 0 l 1,4,5
0 800 m 1,9,-1
 0 1000 l 1,10,-1
 200 1000 l 1,11,-1
 200 800 l 1,12,-1
 0 800 l 1,9,-1
200 400 m 1,13,-1
 200 600 l 1,14,-1
 400 600 l 1,15,-1
 400 400 l 1,16,-1
 200 400 l 1,13,-1
400 600 m 1,17,18
 400 600 400 600 400 1000 c 1,19,-1
 600 1000 l 1,20,21
 600 1000 600 1000 600 600 c 1,22,-1
 400 600 l 1,17,18
EndSplineSet
EndChar

StartChar: ampersand
Encoding: 38 38 9
Width: 1200
GlyphClass: 2
Flags: W
LayerCount: 2
Fore
SplineSet
800 0 m 1,0,-1
 800 200 l 1,1,-1
 1000 200 l 1,2,-1
 1000 0 l 1,3,-1
 800 0 l 1,0,-1
600 200 m 1,4,-1
 600 0 l 1,5,6
 600 0 600 0 200 0 c 1,7,-1
 200 200 l 1,8,-1
 600 200 l 1,4,-1
600 200 m 1,9,-1
 600 400 l 1,10,-1
 800 400 l 1,11,-1
 800 200 l 1,12,-1
 600 200 l 1,9,-1
200 200 m 1,13,-1
 0 200 l 1,14,-1
 0 400 l 1,15,-1
 200 400 l 1,16,-1
 200 200 l 1,13,-1
800 400 m 1,17,18
 800 400 800 400 800 800 c 1,19,-1
 1000 800 l 1,20,21
 1000 800 1000 800 1000 400 c 1,22,-1
 800 400 l 1,17,18
600 400 m 1,23,24
 600 400 600 400 200 400 c 1,25,-1
 200 600 l 1,26,-1
 400 600 l 1,27,-1
 400 800 l 1,28,-1
 600 800 l 1,29,30
 600 800 600 800 600 400 c 1,23,24
200 600 m 1,31,-1
 0 600 l 1,32,-1
 0 800 l 1,33,-1
 200 800 l 1,34,-1
 200 600 l 1,31,-1
200 800 m 1,35,-1
 200 1000 l 1,36,-1
 400 1000 l 1,37,-1
 400 800 l 1,38,-1
 200 800 l 1,35,-1
EndSplineSet
EndChar

StartChar: quotesingle
Encoding: 39 39 10
Width: 400
GlyphClass: 2
Flags: W
LayerCount: 2
Fore
SplineSet
0 600 m 1,0,1
 0 600 0 600 0 1000 c 1,2,-1
 200 1000 l 1,3,-1
 200 600 l 1,4,-1
 0 600 l 1,0,1
EndSplineSet
EndChar

StartChar: parenleft
Encoding: 40 40 11
Width: 600
GlyphClass: 2
Flags: W
LayerCount: 2
Fore
SplineSet
200 0 m 1,0,-1
 200 200 l 1,1,-1
 400 200 l 1,2,-1
 400 0 l 1,3,-1
 200 0 l 1,0,-1
200 200 m 1,4,-1
 0 200 l 1,5,6
 0 200 0 200 0 800 c 1,7,-1
 200 800 l 1,8,-1
 200 200 l 1,4,-1
200 800 m 1,9,-1
 200 1000 l 1,10,-1
 400 1000 l 1,11,-1
 400 800 l 1,12,-1
 200 800 l 1,9,-1
EndSplineSet
EndChar

StartChar: parenright
Encoding: 41 41 12
Width: 600
GlyphClass: 2
Flags: W
LayerCount: 2
Fore
SplineSet
0 0 m 1,0,-1
 0 200 l 1,1,-1
 200 200 l 1,2,-1
 200 0 l 1,3,-1
 0 0 l 1,0,-1
200 200 m 1,4,5
 200 200 200 200 200 800 c 1,6,-1
 400 800 l 1,7,-1
 400 200 l 1,8,-1
 200 200 l 1,4,5
200 800 m 1,9,-1
 0 800 l 1,10,-1
 0 1000 l 1,11,-1
 200 1000 l 1,12,-1
 200 800 l 1,9,-1
EndSplineSet
EndChar

StartChar: asterisk
Encoding: 42 42 13
Width: 800
GlyphClass: 2
Flags: W
LayerCount: 2
Fore
SplineSet
400 400 m 1,0,-1
 400 600 l 1,1,-1
 600 600 l 1,2,-1
 600 400 l 1,3,-1
 400 400 l 1,0,-1
0 400 m 1,4,-1
 0 600 l 1,5,-1
 200 600 l 1,6,-1
 200 400 l 1,7,-1
 0 400 l 1,4,-1
200 600 m 1,8,-1
 200 800 l 1,9,-1
 400 800 l 1,10,-1
 400 600 l 1,11,-1
 200 600 l 1,8,-1
400 800 m 1,12,-1
 400 1000 l 1,13,-1
 600 1000 l 1,14,-1
 600 800 l 1,15,-1
 400 800 l 1,12,-1
200 800 m 1,16,-1
 0 800 l 1,17,-1
 0 1000 l 1,18,-1
 200 1000 l 1,19,-1
 200 800 l 1,16,-1
EndSplineSet
EndChar

StartChar: plus
Encoding: 43 43 14
Width: 800
GlyphClass: 2
Flags: W
LayerCount: 2
Fore
SplineSet
200 200 m 1,0,-1
 200 400 l 1,1,-1
 0 400 l 1,2,-1
 0 600 l 1,3,-1
 200 600 l 1,4,-1
 200 800 l 1,5,-1
 400 800 l 1,6,-1
 400 600 l 1,7,-1
 600 600 l 1,8,-1
 600 400 l 1,9,-1
 400 400 l 1,10,-1
 400 200 l 1,11,-1
 200 200 l 1,0,-1
EndSplineSet
EndChar

StartChar: comma
Encoding: 44 44 15
Width: 400
GlyphClass: 2
Flags: W
LayerCount: 2
Fore
SplineSet
0 0 m 1,0,1
 0 0 0 0 0 400 c 1,2,-1
 200 400 l 1,3,-1
 200 0 l 1,4,-1
 0 0 l 1,0,1
EndSplineSet
EndChar

StartChar: hyphen
Encoding: 45 45 16
Width: 800
GlyphClass: 2
Flags: W
LayerCount: 2
Fore
SplineSet
600 600 m 1,0,-1
 600 400 l 1,1,2
 600 400 600 400 0 400 c 1,3,-1
 0 600 l 1,4,-1
 600 600 l 1,0,-1
EndSplineSet
EndChar

StartChar: period
Encoding: 46 46 17
Width: 400
GlyphClass: 2
Flags: W
LayerCount: 2
Fore
SplineSet
0 0 m 1,0,-1
 0 200 l 1,1,-1
 200 200 l 1,2,-1
 200 0 l 1,3,-1
 0 0 l 1,0,-1
EndSplineSet
EndChar

StartChar: slash
Encoding: 47 47 18
Width: 800
GlyphClass: 2
Flags: W
LayerCount: 2
Fore
SplineSet
0 0 m 1,0,-1
 0 200 l 1,1,-1
 200 200 l 1,2,-1
 200 0 l 1,3,-1
 0 0 l 1,0,-1
200 200 m 1,4,5
 200 200 200 200 200 600 c 1,6,-1
 400 600 l 1,7,-1
 400 200 l 1,8,-1
 200 200 l 1,4,5
400 600 m 1,9,10
 400 600 400 600 400 1000 c 1,11,-1
 600 1000 l 1,12,13
 600 1000 600 1000 600 600 c 1,14,-1
 400 600 l 1,9,10
EndSplineSet
EndChar

StartChar: zero
Encoding: 48 48 19
Width: 800
GlyphClass: 2
Flags: W
LayerCount: 2
Fore
SplineSet
0 0 m 1,0,1
 0 0 0 0 0 1000 c 1,2,3
 0 1000 0 1000 600 1000 c 1,4,5
 600 1000 600 1000 600 0 c 1,6,-1
 0 0 l 1,0,1
400 200 m 1,7,8
 400 200 400 200 400 800 c 1,9,-1
 200 800 l 1,10,11
 200 800 200 800 200 200 c 1,12,-1
 400 200 l 1,7,8
EndSplineSet
EndChar

StartChar: one
Encoding: 49 49 20
Width: 800
GlyphClass: 2
Flags: W
LayerCount: 2
Fore
SplineSet
0 0 m 1,0,-1
 0 200 l 1,1,-1
 200 200 l 1,2,3
 200 200 200 200 200 600 c 1,4,-1
 0 600 l 1,5,-1
 0 800 l 1,6,-1
 200 800 l 1,7,-1
 200 1000 l 1,8,-1
 400 1000 l 1,9,10
 400 1000 400 1000 400 200 c 1,11,-1
 600 200 l 1,12,-1
 600 0 l 1,13,-1
 0 0 l 1,0,-1
EndSplineSet
EndChar

StartChar: two
Encoding: 50 50 21
Width: 800
GlyphClass: 2
Flags: W
LayerCount: 2
Fore
SplineSet
600 200 m 1,0,-1
 600 0 l 1,1,2
 600 0 600 0 0 0 c 1,3,4
 0 0 0 0 0 600 c 1,5,6
 0 600 0 600 400 600 c 1,7,-1
 400 800 l 1,8,9
 400 800 400 800 0 800 c 1,10,-1
 0 1000 l 1,11,12
 0 1000 0 1000 600 1000 c 1,13,14
 600 1000 600 1000 600 400 c 1,15,16
 600 400 600 400 200 400 c 1,17,-1
 200 200 l 1,18,-1
 600 200 l 1,0,-1
EndSplineSet
EndChar

StartChar: three
Encoding: 51 51 22
Width: 800
GlyphClass: 2
Flags: W
LayerCount: 2
Fore
SplineSet
0 0 m 1,0,-1
 0 200 l 1,1,2
 0 200 0 200 400 200 c 1,3,-1
 400 400 l 1,4,5
 400 400 400 400 0 400 c 1,6,-1
 0 600 l 1,7,8
 0 600 0 600 400 600 c 1,9,-1
 400 800 l 1,10,11
 400 800 400 800 0 800 c 1,12,-1
 0 1000 l 1,13,14
 0 1000 0 1000 600 1000 c 1,15,16
 600 1000 600 1000 600 0 c 1,17,-1
 0 0 l 1,0,-1
EndSplineSet
EndChar

StartChar: four
Encoding: 52 52 23
Width: 800
GlyphClass: 2
Flags: W
LayerCount: 2
Fore
SplineSet
400 0 m 1,0,1
 400 0 400 0 400 400 c 1,2,3
 400 400 400 400 0 400 c 1,4,5
 0 400 0 400 0 1000 c 1,6,-1
 200 1000 l 1,7,8
 200 1000 200 1000 200 600 c 1,9,-1
 400 600 l 1,10,11
 400 600 400 600 400 1000 c 1,12,-1
 600 1000 l 1,13,-1
 600 0 l 1,14,-1
 400 0 l 1,0,1
EndSplineSet
EndChar

StartChar: five
Encoding: 53 53 24
Width: 800
GlyphClass: 2
Flags: W
LayerCount: 2
Fore
SplineSet
0 0 m 1,0,-1
 0 200 l 1,1,2
 0 200 0 200 400 200 c 1,3,-1
 400 400 l 1,4,5
 400 400 400 400 0 400 c 1,6,7
 0 400 0 400 0 1000 c 1,8,9
 0 1000 0 1000 600 1000 c 1,10,-1
 600 800 l 1,11,12
 600 800 600 800 200 800 c 1,13,-1
 200 600 l 1,14,15
 200 600 200 600 600 600 c 1,16,17
 600 600 600 600 600 0 c 1,18,-1
 0 0 l 1,0,-1
EndSplineSet
EndChar

StartChar: six
Encoding: 54 54 25
Width: 800
GlyphClass: 2
Flags: W
LayerCount: 2
Fore
SplineSet
0 0 m 1,0,1
 0 0 0 0 0 1000 c 1,2,3
 0 1000 0 1000 600 1000 c 1,4,-1
 600 800 l 1,5,6
 600 800 600 800 200 800 c 1,7,-1
 200 600 l 1,8,9
 200 600 200 600 600 600 c 1,10,11
 600 600 600 600 600 0 c 1,12,-1
 0 0 l 1,0,1
400 200 m 1,13,-1
 400 400 l 1,14,-1
 200 400 l 1,15,-1
 200 200 l 1,16,-1
 400 200 l 1,13,-1
EndSplineSet
EndChar

StartChar: seven
Encoding: 55 55 26
Width: 800
GlyphClass: 2
Flags: W
LayerCount: 2
Fore
SplineSet
400 0 m 1,0,1
 400 0 400 0 400 800 c 1,2,3
 400 800 400 800 0 800 c 1,4,-1
 0 1000 l 1,5,6
 0 1000 0 1000 600 1000 c 1,7,-1
 600 0 l 1,8,-1
 400 0 l 1,0,1
EndSplineSet
EndChar

StartChar: eight
Encoding: 56 56 27
Width: 800
GlyphClass: 2
Flags: W
LayerCount: 2
Fore
SplineSet
0 0 m 1,0,1
 0 0 0 0 0 1000 c 1,2,3
 0 1000 0 1000 600 1000 c 1,4,5
 600 1000 600 1000 600 0 c 1,6,-1
 0 0 l 1,0,1
400 200 m 1,7,-1
 400 400 l 1,8,-1
 200 400 l 1,9,-1
 200 200 l 1,10,-1
 400 200 l 1,7,-1
400 600 m 1,11,-1
 400 800 l 1,12,-1
 200 800 l 1,13,-1
 200 600 l 1,14,-1
 400 600 l 1,11,-1
EndSplineSet
EndChar

StartChar: nine
Encoding: 57 57 28
Width: 800
GlyphClass: 2
Flags: W
LayerCount: 2
Fore
SplineSet
0 0 m 1,0,-1
 0 200 l 1,1,2
 0 200 0 200 400 200 c 1,3,-1
 400 400 l 1,4,5
 400 400 400 400 0 400 c 1,6,7
 0 400 0 400 0 1000 c 1,8,9
 0 1000 0 1000 600 1000 c 1,10,11
 600 1000 600 1000 600 0 c 1,12,-1
 0 0 l 1,0,-1
400 600 m 1,13,-1
 400 800 l 1,14,-1
 200 800 l 1,15,-1
 200 600 l 1,16,-1
 400 600 l 1,13,-1
EndSplineSet
EndChar

StartChar: colon
Encoding: 58 58 29
Width: 400
GlyphClass: 2
Flags: W
LayerCount: 2
Fore
SplineSet
0 0 m 1,0,-1
 0 200 l 1,1,-1
 200 200 l 1,2,-1
 200 0 l 1,3,-1
 0 0 l 1,0,-1
0 600 m 1,4,-1
 0 800 l 1,5,-1
 200 800 l 1,6,-1
 200 600 l 1,7,-1
 0 600 l 1,4,-1
EndSplineSet
EndChar

StartChar: semicolon
Encoding: 59 59 30
Width: 400
GlyphClass: 2
Flags: W
LayerCount: 2
Fore
SplineSet
0 0 m 1,0,1
 0 0 0 0 0 400 c 1,2,-1
 200 400 l 1,3,-1
 200 0 l 1,4,-1
 0 0 l 1,0,1
0 600 m 1,5,-1
 0 800 l 1,6,-1
 200 800 l 1,7,-1
 200 600 l 1,8,-1
 0 600 l 1,5,-1
EndSplineSet
EndChar

StartChar: less
Encoding: 60 60 31
Width: 800
GlyphClass: 2
Flags: W
LayerCount: 2
Fore
SplineSet
400 0 m 1,0,-1
 400 200 l 1,1,-1
 600 200 l 1,2,-1
 600 0 l 1,3,-1
 400 0 l 1,0,-1
400 200 m 1,4,-1
 200 200 l 1,5,-1
 200 400 l 1,6,-1
 400 400 l 1,7,-1
 400 200 l 1,4,-1
200 400 m 1,8,-1
 0 400 l 1,9,-1
 0 600 l 1,10,-1
 200 600 l 1,11,-1
 200 400 l 1,8,-1
200 600 m 1,12,-1
 200 800 l 1,13,-1
 400 800 l 1,14,-1
 400 600 l 1,15,-1
 200 600 l 1,12,-1
400 800 m 1,16,-1
 400 1000 l 1,17,-1
 600 1000 l 1,18,-1
 600 800 l 1,19,-1
 400 800 l 1,16,-1
EndSplineSet
EndChar

StartChar: equal
Encoding: 61 61 32
Width: 800
GlyphClass: 2
Flags: W
LayerCount: 2
Fore
SplineSet
600 400 m 1,0,-1
 600 200 l 1,1,2
 600 200 600 200 0 200 c 1,3,-1
 0 400 l 1,4,-1
 600 400 l 1,0,-1
600 800 m 1,5,-1
 600 600 l 1,6,7
 600 600 600 600 0 600 c 1,8,-1
 0 800 l 1,9,10
 0 800 0 800 600 800 c 1,5,-1
EndSplineSet
EndChar

StartChar: greater
Encoding: 62 62 33
Width: 800
GlyphClass: 2
Flags: W
LayerCount: 2
Fore
SplineSet
0 0 m 1,0,-1
 0 200 l 1,1,-1
 200 200 l 1,2,-1
 200 0 l 1,3,-1
 0 0 l 1,0,-1
200 200 m 1,4,-1
 200 400 l 1,5,-1
 400 400 l 1,6,-1
 400 200 l 1,7,-1
 200 200 l 1,4,-1
400 400 m 1,8,-1
 400 600 l 1,9,-1
 600 600 l 1,10,-1
 600 400 l 1,11,-1
 400 400 l 1,8,-1
400 600 m 1,12,-1
 200 600 l 1,13,-1
 200 800 l 1,14,-1
 400 800 l 1,15,-1
 400 600 l 1,12,-1
200 800 m 1,16,-1
 0 800 l 1,17,-1
 0 1000 l 1,18,-1
 200 1000 l 1,19,-1
 200 800 l 1,16,-1
EndSplineSet
EndChar

StartChar: question
Encoding: 63 63 34
Width: 800
GlyphClass: 2
Flags: W
LayerCount: 2
Fore
SplineSet
200 0 m 1,0,-1
 200 200 l 1,1,-1
 400 200 l 1,2,-1
 400 0 l 1,3,-1
 200 0 l 1,0,-1
200 400 m 1,4,-1
 200 600 l 1,5,-1
 400 600 l 1,6,-1
 400 400 l 1,7,-1
 200 400 l 1,4,-1
400 600 m 1,8,-1
 400 800 l 1,9,-1
 600 800 l 1,10,-1
 600 600 l 1,11,-1
 400 600 l 1,8,-1
400 800 m 1,12,13
 400 800 400 800 0 800 c 1,14,-1
 0 1000 l 1,15,-1
 400 1000 l 1,16,-1
 400 800 l 1,12,13
EndSplineSet
EndChar

StartChar: at
Encoding: 64 64 35
Width: 1400
GlyphClass: 2
Flags: W
LayerCount: 2
Fore
SplineSet
0 0 m 1,0,1
 0 0 0 0 0 800 c 1,2,-1
 200 800 l 1,3,-1
 200 0 l 1,4,-1
 0 0 l 1,0,1
800 0 m 1,5,6
 800 0 800 0 400 0 c 1,7,8
 400 0 400 0 400 600 c 1,9,10
 400 600 400 600 800 600 c 1,11,12
 800 600 800 600 800 200 c 1,13,-1
 1000 200 l 1,14,-1
 1000 0 l 1,15,-1
 800 0 l 1,5,6
1000 200 m 1,16,17
 1000 200 1000 200 1000 800 c 1,18,-1
 1200 800 l 1,19,20
 1200 800 1200 800 1200 200 c 1,21,-1
 1000 200 l 1,16,17
1000 800 m 1,22,23
 1000 800 1000 800 200 800 c 1,24,-1
 200 1000 l 1,25,26
 200 1000 200 1000 1000 1000 c 1,27,-1
 1000 800 l 1,22,23
EndSplineSet
EndChar

StartChar: A
Encoding: 65 65 36
Width: 1000
GlyphClass: 2
Flags: W
LayerCount: 2
Fore
SplineSet
600 0 m 1,0,1
 600 0 600 0 600 400 c 1,2,3
 600 400 600 400 200 400 c 1,4,5
 200 400 200 400 200 0 c 1,6,-1
 0 0 l 1,7,8
 0 0 0 0 0 800 c 1,9,-1
 200 800 l 1,10,-1
 200 600 l 1,11,12
 200 600 200 600 600 600 c 1,13,-1
 600 800 l 1,14,-1
 800 800 l 1,15,-1
 800 0 l 1,16,-1
 600 0 l 1,0,1
600 800 m 1,17,18
 600 800 600 800 200 800 c 1,19,-1
 200 1000 l 1,20,21
 200 1000 200 1000 600 1000 c 1,22,-1
 600 800 l 1,17,18
EndSplineSet
EndChar

StartChar: B
Encoding: 66 66 37
Width: 1000
GlyphClass: 2
Flags: W
LayerCount: 2
Fore
SplineSet
600 200 m 1,0,-1
 600 400 l 1,1,2
 600 400 600 400 200 400 c 1,3,-1
 200 200 l 1,4,-1
 600 200 l 1,0,-1
0 0 m 1,5,6
 0 0 0 0 0 1000 c 1,7,8
 0 1000 0 1000 600 1000 c 1,9,-1
 600 800 l 1,10,-1
 800 800 l 1,11,-1
 800 600 l 1,12,-1
 600 600 l 1,13,-1
 600 800 l 1,14,15
 600 800 600 800 200 800 c 1,16,-1
 200 600 l 1,17,18
 200 600 200 600 600 600 c 1,19,-1
 600 400 l 1,20,-1
 800 400 l 1,21,-1
 800 200 l 1,22,-1
 600 200 l 1,23,-1
 600 0 l 1,24,25
 600 0 600 0 0 0 c 1,5,6
EndSplineSet
EndChar

StartChar: C
Encoding: 67 67 38
Width: 1000
GlyphClass: 2
Flags: W
LayerCount: 2
Fore
SplineSet
600 600 m 1,0,-1
 600 800 l 1,1,-1
 800 800 l 1,2,-1
 800 600 l 1,3,-1
 600 600 l 1,0,-1
600 200 m 1,4,-1
 600 0 l 1,5,6
 600 0 600 0 200 0 c 1,7,-1
 200 200 l 1,8,-1
 600 200 l 1,4,-1
600 200 m 1,9,-1
 600 400 l 1,10,-1
 800 400 l 1,11,-1
 800 200 l 1,12,-1
 600 200 l 1,9,-1
200 200 m 1,13,-1
 0 200 l 1,14,15
 0 200 0 200 0 800 c 1,16,-1
 200 800 l 1,17,18
 200 800 200 800 200 200 c 1,13,-1
600 800 m 1,19,20
 600 800 600 800 200 800 c 1,21,-1
 200 1000 l 1,22,23
 200 1000 200 1000 600 1000 c 1,24,-1
 600 800 l 1,19,20
EndSplineSet
EndChar

StartChar: D
Encoding: 68 68 39
Width: 1000
GlyphClass: 2
Flags: W
LayerCount: 2
Fore
SplineSet
600 200 m 1,0,1
 600 200 600 200 600 800 c 1,2,3
 600 800 600 800 200 800 c 1,4,5
 200 800 200 800 200 200 c 1,6,-1
 600 200 l 1,0,1
0 0 m 1,7,8
 0 0 0 0 0 1000 c 1,9,10
 0 1000 0 1000 600 1000 c 1,11,-1
 600 800 l 1,12,-1
 800 800 l 1,13,14
 800 800 800 800 800 200 c 1,15,-1
 600 200 l 1,16,-1
 600 0 l 1,17,18
 600 0 600 0 0 0 c 1,7,8
EndSplineSet
EndChar

StartChar: E
Encoding: 69 69 40
Width: 800
GlyphClass: 2
Flags: W
LayerCount: 2
Fore
SplineSet
600 200 m 1,0,-1
 600 0 l 1,1,2
 600 0 600 0 0 0 c 1,3,4
 0 0 0 0 0 1000 c 1,5,6
 0 1000 0 1000 600 1000 c 1,7,-1
 600 800 l 1,8,9
 600 800 600 800 200 800 c 1,10,-1
 200 600 l 1,11,-1
 400 600 l 1,12,-1
 400 400 l 1,13,-1
 200 400 l 1,14,-1
 200 200 l 1,15,-1
 600 200 l 1,0,-1
EndSplineSet
EndChar

StartChar: F
Encoding: 70 70 41
Width: 800
GlyphClass: 2
Flags: W
LayerCount: 2
Fore
SplineSet
0 0 m 1,0,1
 0 0 0 0 0 1000 c 1,2,3
 0 1000 0 1000 600 1000 c 1,4,-1
 600 800 l 1,5,6
 600 800 600 800 200 800 c 1,7,-1
 200 600 l 1,8,-1
 400 600 l 1,9,-1
 400 400 l 1,10,-1
 200 400 l 1,11,-1
 200 0 l 1,12,-1
 0 0 l 1,0,1
EndSplineSet
EndChar

StartChar: G
Encoding: 71 71 42
Width: 1000
GlyphClass: 2
Flags: W
LayerCount: 2
Fore
SplineSet
600 200 m 1,0,-1
 600 0 l 1,1,2
 600 0 600 0 200 0 c 1,3,-1
 200 200 l 1,4,-1
 600 200 l 1,0,-1
600 200 m 1,5,-1
 600 400 l 1,6,-1
 400 400 l 1,7,-1
 400 600 l 1,8,9
 400 600 400 600 800 600 c 1,10,11
 800 600 800 600 800 200 c 1,12,-1
 600 200 l 1,5,-1
200 200 m 1,13,-1
 0 200 l 1,14,15
 0 200 0 200 0 800 c 1,16,-1
 200 800 l 1,17,18
 200 800 200 800 200 200 c 1,13,-1
800 1000 m 1,19,-1
 800 800 l 1,20,21
 800 800 800 800 200 800 c 1,22,-1
 200 1000 l 1,23,24
 200 1000 200 1000 800 1000 c 1,19,-1
EndSplineSet
EndChar

StartChar: H
Encoding: 72 72 43
Width: 1000
GlyphClass: 2
Flags: W
LayerCount: 2
Fore
SplineSet
600 0 m 1,0,1
 600 0 600 0 600 400 c 1,2,3
 600 400 600 400 200 400 c 1,4,5
 200 400 200 400 200 0 c 1,6,-1
 0 0 l 1,7,8
 0 0 0 0 0 1000 c 1,9,-1
 200 1000 l 1,10,11
 200 1000 200 1000 200 600 c 1,12,13
 200 600 200 600 600 600 c 1,14,15
 600 600 600 600 600 1000 c 1,16,-1
 800 1000 l 1,17,-1
 800 0 l 1,18,-1
 600 0 l 1,0,1
EndSplineSet
EndChar

StartChar: I
Encoding: 73 73 44
Width: 800
GlyphClass: 2
Flags: W
LayerCount: 2
Fore
SplineSet
0 0 m 1,0,-1
 0 200 l 1,1,-1
 200 200 l 1,2,3
 200 200 200 200 200 800 c 1,4,-1
 0 800 l 1,5,-1
 0 1000 l 1,6,7
 0 1000 0 1000 600 1000 c 1,8,-1
 600 800 l 1,9,-1
 400 800 l 1,10,11
 400 800 400 800 400 200 c 1,12,-1
 600 200 l 1,13,-1
 600 0 l 1,14,-1
 0 0 l 1,0,-1
EndSplineSet
EndChar

StartChar: J
Encoding: 74 74 45
Width: 800
GlyphClass: 2
Flags: W
LayerCount: 2
Fore
SplineSet
400 200 m 1,0,-1
 400 0 l 1,1,2
 400 0 400 0 0 0 c 1,3,-1
 0 200 l 1,4,-1
 400 200 l 1,0,-1
400 200 m 1,5,6
 400 200 400 200 400 800 c 1,7,8
 400 800 400 800 0 800 c 1,9,-1
 0 1000 l 1,10,11
 0 1000 0 1000 600 1000 c 1,12,13
 600 1000 600 1000 600 200 c 1,14,-1
 400 200 l 1,5,6
EndSplineSet
EndChar

StartChar: K
Encoding: 75 75 46
Width: 1000
GlyphClass: 2
Flags: W
LayerCount: 2
Fore
SplineSet
600 0 m 1,0,-1
 600 200 l 1,1,-1
 800 200 l 1,2,-1
 800 0 l 1,3,-1
 600 0 l 1,0,-1
0 0 m 1,4,5
 0 0 0 0 0 1000 c 1,6,-1
 200 1000 l 1,7,8
 200 1000 200 1000 200 600 c 1,9,-1
 400 600 l 1,10,-1
 400 400 l 1,11,-1
 600 400 l 1,12,-1
 600 200 l 1,13,-1
 400 200 l 1,14,-1
 400 400 l 1,15,-1
 200 400 l 1,16,-1
 200 0 l 1,17,-1
 0 0 l 1,4,5
400 600 m 1,18,-1
 400 800 l 1,19,-1
 600 800 l 1,20,-1
 600 600 l 1,21,-1
 400 600 l 1,18,-1
600 800 m 1,22,-1
 600 1000 l 1,23,-1
 800 1000 l 1,24,-1
 800 800 l 1,25,-1
 600 800 l 1,22,-1
EndSplineSet
EndChar

StartChar: L
Encoding: 76 76 47
Width: 800
GlyphClass: 2
Flags: W
LayerCount: 2
Fore
SplineSet
600 200 m 1,0,-1
 600 0 l 1,1,2
 600 0 600 0 0 0 c 1,3,4
 0 0 0 0 0 1000 c 1,5,-1
 200 1000 l 1,6,7
 200 1000 200 1000 200 200 c 1,8,-1
 600 200 l 1,0,-1
EndSplineSet
EndChar

StartChar: M
Encoding: 77 77 48
Width: 1200
GlyphClass: 2
Flags: W
LayerCount: 2
Fore
SplineSet
800 0 m 1,0,1
 800 0 800 0 800 600 c 1,2,-1
 600 600 l 1,3,-1
 600 400 l 1,4,-1
 400 400 l 1,5,-1
 400 600 l 1,6,-1
 600 600 l 1,7,-1
 600 800 l 1,8,-1
 800 800 l 1,9,-1
 800 1000 l 1,10,-1
 1000 1000 l 1,11,-1
 1000 0 l 1,12,-1
 800 0 l 1,0,1
0 0 m 1,13,14
 0 0 0 0 0 1000 c 1,15,-1
 200 1000 l 1,16,-1
 200 800 l 1,17,-1
 400 800 l 1,18,-1
 400 600 l 1,19,-1
 200 600 l 1,20,21
 200 600 200 600 200 0 c 1,22,-1
 0 0 l 1,13,14
EndSplineSet
EndChar

StartChar: N
Encoding: 78 78 49
Width: 1000
GlyphClass: 2
Flags: W
LayerCount: 2
Fore
SplineSet
600 0 m 1,0,-1
 600 200 l 1,1,-1
 400 200 l 1,2,3
 400 200 400 200 400 600 c 1,4,-1
 600 600 l 1,5,6
 600 600 600 600 600 1000 c 1,7,-1
 800 1000 l 1,8,-1
 800 0 l 1,9,-1
 600 0 l 1,0,-1
0 0 m 1,10,11
 0 0 0 0 0 1000 c 1,12,-1
 200 1000 l 1,13,-1
 200 800 l 1,14,-1
 400 800 l 1,15,-1
 400 600 l 1,16,-1
 200 600 l 1,17,18
 200 600 200 600 200 0 c 1,19,-1
 0 0 l 1,10,11
EndSplineSet
EndChar

StartChar: O
Encoding: 79 79 50
Width: 1000
GlyphClass: 2
Flags: W
LayerCount: 2
Fore
SplineSet
600 200 m 1,0,-1
 600 0 l 1,1,2
 600 0 600 0 200 0 c 1,3,-1
 200 200 l 1,4,-1
 600 200 l 1,0,-1
600 200 m 1,5,6
 600 200 600 200 600 800 c 1,7,-1
 800 800 l 1,8,9
 800 800 800 800 800 200 c 1,10,-1
 600 200 l 1,5,6
200 200 m 1,11,-1
 0 200 l 1,12,13
 0 200 0 200 0 800 c 1,14,-1
 200 800 l 1,15,16
 200 800 200 800 200 200 c 1,11,-1
600 800 m 1,17,18
 600 800 600 800 200 800 c 1,19,-1
 200 1000 l 1,20,21
 200 1000 200 1000 600 1000 c 1,22,-1
 600 800 l 1,17,18
EndSplineSet
EndChar

StartChar: P
Encoding: 80 80 51
Width: 1000
GlyphClass: 2
Flags: W
LayerCount: 2
Fore
SplineSet
0 0 m 1,0,1
 0 0 0 0 0 1000 c 1,2,3
 0 1000 0 1000 600 1000 c 1,4,-1
 600 800 l 1,5,-1
 800 800 l 1,6,7
 800 800 800 800 800 400 c 1,8,-1
 600 400 l 1,9,10
 600 400 600 400 600 800 c 1,11,12
 600 800 600 800 200 800 c 1,13,14
 200 800 200 800 200 400 c 1,15,16
 200 400 200 400 600 400 c 1,17,-1
 600 200 l 1,18,-1
 200 200 l 1,19,-1
 200 0 l 1,20,-1
 0 0 l 1,0,1
EndSplineSet
EndChar

StartChar: Q
Encoding: 81 81 52
Width: 1200
GlyphClass: 2
Flags: W
LayerCount: 2
Fore
SplineSet
800 0 m 1,0,-1
 800 200 l 1,1,-1
 1000 200 l 1,2,-1
 1000 0 l 1,3,-1
 800 0 l 1,0,-1
600 200 m 1,4,-1
 600 0 l 1,5,6
 600 0 600 0 200 0 c 1,7,-1
 200 200 l 1,8,-1
 600 200 l 1,4,-1
600 200 m 1,9,10
 600 200 600 200 600 800 c 1,11,-1
 800 800 l 1,12,13
 800 800 800 800 800 200 c 1,14,-1
 600 200 l 1,9,10
200 200 m 1,15,-1
 0 200 l 1,16,17
 0 200 0 200 0 800 c 1,18,-1
 200 800 l 1,19,20
 200 800 200 800 200 200 c 1,15,-1
600 800 m 1,21,22
 600 800 600 800 200 800 c 1,23,-1
 200 1000 l 1,24,25
 200 1000 200 1000 600 1000 c 1,26,-1
 600 800 l 1,21,22
EndSplineSet
EndChar

StartChar: R
Encoding: 82 82 53
Width: 1000
GlyphClass: 2
Flags: W
LayerCount: 2
Fore
SplineSet
600 0 m 1,0,1
 600 0 600 0 600 400 c 1,2,-1
 800 400 l 1,3,-1
 800 0 l 1,4,-1
 600 0 l 1,0,1
0 0 m 1,5,6
 0 0 0 0 0 1000 c 1,7,8
 0 1000 0 1000 600 1000 c 1,9,-1
 600 800 l 1,10,-1
 800 800 l 1,11,-1
 800 600 l 1,12,-1
 600 600 l 1,13,-1
 600 800 l 1,14,15
 600 800 600 800 200 800 c 1,16,-1
 200 600 l 1,17,18
 200 600 200 600 600 600 c 1,19,-1
 600 400 l 1,20,21
 600 400 600 400 200 400 c 1,22,23
 200 400 200 400 200 0 c 1,24,-1
 0 0 l 1,5,6
EndSplineSet
EndChar

StartChar: S
Encoding: 83 83 54
Width: 1000
GlyphClass: 2
Flags: W
LayerCount: 2
Fore
SplineSet
600 200 m 1,0,-1
 600 0 l 1,1,2
 600 0 600 0 0 0 c 1,3,-1
 0 200 l 1,4,-1
 600 200 l 1,0,-1
600 200 m 1,5,-1
 600 400 l 1,6,-1
 800 400 l 1,7,-1
 800 200 l 1,8,-1
 600 200 l 1,5,-1
600 400 m 1,9,10
 600 400 600 400 200 400 c 1,11,-1
 200 600 l 1,12,13
 200 600 200 600 600 600 c 1,14,-1
 600 400 l 1,9,10
200 600 m 1,15,-1
 0 600 l 1,16,-1
 0 800 l 1,17,-1
 200 800 l 1,18,-1
 200 600 l 1,15,-1
800 1000 m 1,19,-1
 800 800 l 1,20,21
 800 800 800 800 200 800 c 1,22,-1
 200 1000 l 1,23,24
 200 1000 200 1000 800 1000 c 1,19,-1
EndSplineSet
EndChar

StartChar: T
Encoding: 84 84 55
Width: 1200
GlyphClass: 2
Flags: W
LayerCount: 2
Fore
SplineSet
400 0 m 1,0,1
 400 0 400 0 400 800 c 1,2,3
 400 800 400 800 0 800 c 1,4,-1
 0 1000 l 1,5,6
 0 1000 0 1000 1000 1000 c 1,7,-1
 1000 800 l 1,8,9
 1000 800 1000 800 600 800 c 1,10,-1
 600 0 l 1,11,-1
 400 0 l 1,0,1
EndSplineSet
EndChar

StartChar: U
Encoding: 85 85 56
Width: 1000
GlyphClass: 2
Flags: W
LayerCount: 2
Fore
SplineSet
600 200 m 1,0,-1
 600 0 l 1,1,2
 600 0 600 0 200 0 c 1,3,-1
 200 200 l 1,4,-1
 600 200 l 1,0,-1
600 200 m 1,5,6
 600 200 600 200 600 1000 c 1,7,-1
 800 1000 l 1,8,9
 800 1000 800 1000 800 200 c 1,10,-1
 600 200 l 1,5,6
200 200 m 1,11,-1
 0 200 l 1,12,13
 0 200 0 200 0 1000 c 1,14,-1
 200 1000 l 1,15,16
 200 1000 200 1000 200 200 c 1,11,-1
EndSplineSet
EndChar

StartChar: V
Encoding: 86 86 57
Width: 1200
GlyphClass: 2
Flags: W
LayerCount: 2
Fore
SplineSet
400 0 m 1,0,-1
 400 200 l 1,1,-1
 600 200 l 1,2,-1
 600 0 l 1,3,-1
 400 0 l 1,0,-1
600 200 m 1,4,5
 600 200 600 200 600 600 c 1,6,-1
 800 600 l 1,7,-1
 800 200 l 1,8,-1
 600 200 l 1,4,5
400 200 m 1,9,-1
 200 200 l 1,10,11
 200 200 200 200 200 600 c 1,12,-1
 400 600 l 1,13,14
 400 600 400 600 400 200 c 1,9,-1
800 600 m 1,15,16
 800 600 800 600 800 1000 c 1,17,-1
 1000 1000 l 1,18,19
 1000 1000 1000 1000 1000 600 c 1,20,-1
 800 600 l 1,15,16
200 600 m 1,21,-1
 0 600 l 1,22,23
 0 600 0 600 0 1000 c 1,24,-1
 200 1000 l 1,25,26
 200 1000 200 1000 200 600 c 1,21,-1
EndSplineSet
EndChar

StartChar: W
Encoding: 87 87 58
Width: 1200
GlyphClass: 2
Flags: W
LayerCount: 2
Fore
SplineSet
800 0 m 1,0,-1
 800 200 l 1,1,-1
 600 200 l 1,2,-1
 600 400 l 1,3,-1
 800 400 l 1,4,5
 800 400 800 400 800 1000 c 1,6,-1
 1000 1000 l 1,7,-1
 1000 0 l 1,8,-1
 800 0 l 1,0,-1
0 0 m 1,9,10
 0 0 0 0 0 1000 c 1,11,-1
 200 1000 l 1,12,13
 200 1000 200 1000 200 400 c 1,14,-1
 400 400 l 1,15,-1
 400 200 l 1,16,-1
 200 200 l 1,17,-1
 200 0 l 1,18,-1
 0 0 l 1,9,10
400 400 m 1,19,-1
 400 600 l 1,20,-1
 600 600 l 1,21,-1
 600 400 l 1,22,-1
 400 400 l 1,19,-1
EndSplineSet
EndChar

StartChar: X
Encoding: 88 88 59
Width: 1200
GlyphClass: 2
Flags: W
LayerCount: 2
Fore
SplineSet
800 0 m 1,0,-1
 800 200 l 1,1,-1
 1000 200 l 1,2,-1
 1000 0 l 1,3,-1
 800 0 l 1,0,-1
0 0 m 1,4,-1
 0 200 l 1,5,-1
 200 200 l 1,6,-1
 200 0 l 1,7,-1
 0 0 l 1,4,-1
800 200 m 1,8,-1
 600 200 l 1,9,-1
 600 400 l 1,10,-1
 800 400 l 1,11,-1
 800 200 l 1,8,-1
200 200 m 1,12,-1
 200 400 l 1,13,-1
 400 400 l 1,14,-1
 400 200 l 1,15,-1
 200 200 l 1,12,-1
400 400 m 1,16,-1
 400 600 l 1,17,-1
 600 600 l 1,18,-1
 600 400 l 1,19,-1
 400 400 l 1,16,-1
600 600 m 1,20,-1
 600 800 l 1,21,-1
 800 800 l 1,22,-1
 800 600 l 1,23,-1
 600 600 l 1,20,-1
400 600 m 1,24,-1
 200 600 l 1,25,-1
 200 800 l 1,26,-1
 400 800 l 1,27,-1
 400 600 l 1,24,-1
800 800 m 1,28,-1
 800 1000 l 1,29,-1
 1000 1000 l 1,30,-1
 1000 800 l 1,31,-1
 800 800 l 1,28,-1
200 800 m 1,32,-1
 0 800 l 1,33,-1
 0 1000 l 1,34,-1
 200 1000 l 1,35,-1
 200 800 l 1,32,-1
EndSplineSet
EndChar

StartChar: Y
Encoding: 89 89 60
Width: 1200
GlyphClass: 2
Flags: W
LayerCount: 2
Fore
SplineSet
400 0 m 1,0,1
 400 0 400 0 400 600 c 1,2,-1
 600 600 l 1,3,-1
 600 0 l 1,4,-1
 400 0 l 1,0,1
600 600 m 1,5,-1
 600 800 l 1,6,-1
 800 800 l 1,7,-1
 800 600 l 1,8,-1
 600 600 l 1,5,-1
400 600 m 1,9,-1
 200 600 l 1,10,-1
 200 800 l 1,11,-1
 400 800 l 1,12,-1
 400 600 l 1,9,-1
800 800 m 1,13,-1
 800 1000 l 1,14,-1
 1000 1000 l 1,15,-1
 1000 800 l 1,16,-1
 800 800 l 1,13,-1
200 800 m 1,17,-1
 0 800 l 1,18,-1
 0 1000 l 1,19,-1
 200 1000 l 1,20,-1
 200 800 l 1,17,-1
EndSplineSet
EndChar

StartChar: Z
Encoding: 90 90 61
Width: 1000
GlyphClass: 2
Flags: W
LayerCount: 2
Fore
SplineSet
800 200 m 1,0,-1
 800 0 l 1,1,2
 800 0 800 0 0 0 c 1,3,4
 0 0 0 0 0 400 c 1,5,-1
 200 400 l 1,6,-1
 200 200 l 1,7,-1
 800 200 l 1,0,-1
600 600 m 1,8,-1
 600 400 l 1,9,10
 600 400 600 400 200 400 c 1,11,-1
 200 600 l 1,12,13
 200 600 200 600 600 600 c 1,8,-1
600 600 m 1,14,-1
 600 800 l 1,15,16
 600 800 600 800 0 800 c 1,17,-1
 0 1000 l 1,18,19
 0 1000 0 1000 800 1000 c 1,20,21
 800 1000 800 1000 800 600 c 1,22,-1
 600 600 l 1,14,-1
EndSplineSet
EndChar

StartChar: bracketleft
Encoding: 91 91 62
Width: 600
GlyphClass: 2
Flags: W
LayerCount: 2
Fore
SplineSet
0 0 m 1,0,1
 0 0 0 0 0 1000 c 1,2,3
 0 1000 0 1000 400 1000 c 1,4,-1
 400 800 l 1,5,-1
 200 800 l 1,6,7
 200 800 200 800 200 200 c 1,8,-1
 400 200 l 1,9,-1
 400 0 l 1,10,-1
 0 0 l 1,0,1
EndSplineSet
EndChar

StartChar: backslash
Encoding: 92 92 63
Width: 800
GlyphClass: 2
Flags: W
LayerCount: 2
Fore
SplineSet
400 0 m 1,0,-1
 400 200 l 1,1,-1
 600 200 l 1,2,-1
 600 0 l 1,3,-1
 400 0 l 1,0,-1
400 200 m 1,4,-1
 200 200 l 1,5,6
 200 200 200 200 200 600 c 1,7,-1
 400 600 l 1,8,-1
 400 200 l 1,4,-1
200 600 m 1,9,-1
 0 600 l 1,10,11
 0 600 0 600 0 1000 c 1,12,-1
 200 1000 l 1,13,14
 200 1000 200 1000 200 600 c 1,9,-1
EndSplineSet
EndChar

StartChar: bracketright
Encoding: 93 93 64
Width: 600
GlyphClass: 2
Flags: W
LayerCount: 2
Fore
SplineSet
0 0 m 1,0,-1
 0 200 l 1,1,-1
 200 200 l 1,2,3
 200 200 200 200 200 800 c 1,4,-1
 0 800 l 1,5,-1
 0 1000 l 1,6,7
 0 1000 0 1000 400 1000 c 1,8,9
 400 1000 400 1000 400 0 c 1,10,-1
 0 0 l 1,0,-1
EndSplineSet
EndChar

StartChar: asciicircum
Encoding: 94 94 65
Width: 800
GlyphClass: 2
Flags: W
LayerCount: 2
Fore
SplineSet
400 600 m 1,0,-1
 400 800 l 1,1,-1
 600 800 l 1,2,-1
 600 600 l 1,3,-1
 400 600 l 1,0,-1
0 600 m 1,4,-1
 0 800 l 1,5,-1
 200 800 l 1,6,-1
 200 600 l 1,7,-1
 0 600 l 1,4,-1
200 800 m 1,8,-1
 200 1000 l 1,9,-1
 400 1000 l 1,10,-1
 400 800 l 1,11,-1
 200 800 l 1,8,-1
EndSplineSet
EndChar

StartChar: underscore
Encoding: 95 95 66
Width: 800
GlyphClass: 2
Flags: W
LayerCount: 2
Fore
SplineSet
600 200 m 1,0,-1
 600 0 l 1,1,2
 600 0 600 0 0 0 c 1,3,-1
 0 200 l 1,4,-1
 600 200 l 1,0,-1
EndSplineSet
EndChar

StartChar: grave
Encoding: 96 96 67
Width: 600
GlyphClass: 2
Flags: W
LayerCount: 2
Fore
SplineSet
200 600 m 1,0,-1
 200 800 l 1,1,-1
 400 800 l 1,2,-1
 400 600 l 1,3,-1
 200 600 l 1,0,-1
200 800 m 1,4,-1
 0 800 l 1,5,-1
 0 1000 l 1,6,-1
 200 1000 l 1,7,-1
 200 800 l 1,4,-1
EndSplineSet
EndChar

StartChar: a
Encoding: 97 97 68
Width: 1000
GlyphClass: 2
Flags: W
LayerCount: 2
Fore
SplineSet
600 0 m 1,0,1
 600 0 600 0 600 400 c 1,2,3
 600 400 600 400 200 400 c 1,4,5
 200 400 200 400 200 0 c 1,6,-1
 0 0 l 1,7,8
 0 0 0 0 0 800 c 1,9,-1
 200 800 l 1,10,-1
 200 600 l 1,11,12
 200 600 200 600 600 600 c 1,13,-1
 600 800 l 1,14,-1
 800 800 l 1,15,-1
 800 0 l 1,16,-1
 600 0 l 1,0,1
600 800 m 1,17,18
 600 800 600 800 200 800 c 1,19,-1
 200 1000 l 1,20,21
 200 1000 200 1000 600 1000 c 1,22,-1
 600 800 l 1,17,18
EndSplineSet
EndChar

StartChar: b
Encoding: 98 98 69
Width: 1000
GlyphClass: 2
Flags: W
LayerCount: 2
Fore
SplineSet
600 200 m 1,0,-1
 600 400 l 1,1,2
 600 400 600 400 200 400 c 1,3,-1
 200 200 l 1,4,-1
 600 200 l 1,0,-1
0 0 m 1,5,6
 0 0 0 0 0 1000 c 1,7,8
 0 1000 0 1000 600 1000 c 1,9,-1
 600 800 l 1,10,-1
 800 800 l 1,11,-1
 800 600 l 1,12,-1
 600 600 l 1,13,-1
 600 800 l 1,14,15
 600 800 600 800 200 800 c 1,16,-1
 200 600 l 1,17,18
 200 600 200 600 600 600 c 1,19,-1
 600 400 l 1,20,-1
 800 400 l 1,21,-1
 800 200 l 1,22,-1
 600 200 l 1,23,-1
 600 0 l 1,24,25
 600 0 600 0 0 0 c 1,5,6
EndSplineSet
EndChar

StartChar: c
Encoding: 99 99 70
Width: 1000
GlyphClass: 2
Flags: W
LayerCount: 2
Fore
SplineSet
600 600 m 1,0,-1
 600 800 l 1,1,-1
 800 800 l 1,2,-1
 800 600 l 1,3,-1
 600 600 l 1,0,-1
600 200 m 1,4,-1
 600 0 l 1,5,6
 600 0 600 0 200 0 c 1,7,-1
 200 200 l 1,8,-1
 600 200 l 1,4,-1
600 200 m 1,9,-1
 600 400 l 1,10,-1
 800 400 l 1,11,-1
 800 200 l 1,12,-1
 600 200 l 1,9,-1
200 200 m 1,13,-1
 0 200 l 1,14,15
 0 200 0 200 0 800 c 1,16,-1
 200 800 l 1,17,18
 200 800 200 800 200 200 c 1,13,-1
600 800 m 1,19,20
 600 800 600 800 200 800 c 1,21,-1
 200 1000 l 1,22,23
 200 1000 200 1000 600 1000 c 1,24,-1
 600 800 l 1,19,20
EndSplineSet
EndChar

StartChar: d
Encoding: 100 100 71
Width: 1000
GlyphClass: 2
Flags: W
LayerCount: 2
Fore
SplineSet
600 200 m 1,0,1
 600 200 600 200 600 800 c 1,2,3
 600 800 600 800 200 800 c 1,4,5
 200 800 200 800 200 200 c 1,6,-1
 600 200 l 1,0,1
0 0 m 1,7,8
 0 0 0 0 0 1000 c 1,9,10
 0 1000 0 1000 600 1000 c 1,11,-1
 600 800 l 1,12,-1
 800 800 l 1,13,14
 800 800 800 800 800 200 c 1,15,-1
 600 200 l 1,16,-1
 600 0 l 1,17,18
 600 0 600 0 0 0 c 1,7,8
EndSplineSet
EndChar

StartChar: e
Encoding: 101 101 72
Width: 800
GlyphClass: 2
Flags: W
LayerCount: 2
Fore
SplineSet
600 200 m 1,0,-1
 600 0 l 1,1,2
 600 0 600 0 0 0 c 1,3,4
 0 0 0 0 0 1000 c 1,5,6
 0 1000 0 1000 600 1000 c 1,7,-1
 600 800 l 1,8,9
 600 800 600 800 200 800 c 1,10,-1
 200 600 l 1,11,-1
 400 600 l 1,12,-1
 400 400 l 1,13,-1
 200 400 l 1,14,-1
 200 200 l 1,15,-1
 600 200 l 1,0,-1
EndSplineSet
EndChar

StartChar: f
Encoding: 102 102 73
Width: 800
GlyphClass: 2
Flags: W
LayerCount: 2
Fore
SplineSet
0 0 m 1,0,1
 0 0 0 0 0 1000 c 1,2,3
 0 1000 0 1000 600 1000 c 1,4,-1
 600 800 l 1,5,6
 600 800 600 800 200 800 c 1,7,-1
 200 600 l 1,8,-1
 400 600 l 1,9,-1
 400 400 l 1,10,-1
 200 400 l 1,11,-1
 200 0 l 1,12,-1
 0 0 l 1,0,1
EndSplineSet
EndChar

StartChar: g
Encoding: 103 103 74
Width: 1000
GlyphClass: 2
Flags: W
LayerCount: 2
Fore
SplineSet
600 200 m 1,0,-1
 600 0 l 1,1,2
 600 0 600 0 200 0 c 1,3,-1
 200 200 l 1,4,-1
 600 200 l 1,0,-1
600 200 m 1,5,-1
 600 400 l 1,6,-1
 400 400 l 1,7,-1
 400 600 l 1,8,9
 400 600 400 600 800 600 c 1,10,11
 800 600 800 600 800 200 c 1,12,-1
 600 200 l 1,5,-1
200 200 m 1,13,-1
 0 200 l 1,14,15
 0 200 0 200 0 800 c 1,16,-1
 200 800 l 1,17,18
 200 800 200 800 200 200 c 1,13,-1
800 1000 m 1,19,-1
 800 800 l 1,20,21
 800 800 800 800 200 800 c 1,22,-1
 200 1000 l 1,23,24
 200 1000 200 1000 800 1000 c 1,19,-1
EndSplineSet
EndChar

StartChar: h
Encoding: 104 104 75
Width: 1000
GlyphClass: 2
Flags: W
LayerCount: 2
Fore
SplineSet
600 0 m 1,0,1
 600 0 600 0 600 400 c 1,2,3
 600 400 600 400 200 400 c 1,4,5
 200 400 200 400 200 0 c 1,6,-1
 0 0 l 1,7,8
 0 0 0 0 0 1000 c 1,9,-1
 200 1000 l 1,10,11
 200 1000 200 1000 200 600 c 1,12,13
 200 600 200 600 600 600 c 1,14,15
 600 600 600 600 600 1000 c 1,16,-1
 800 1000 l 1,17,-1
 800 0 l 1,18,-1
 600 0 l 1,0,1
EndSplineSet
EndChar

StartChar: i
Encoding: 105 105 76
Width: 800
GlyphClass: 2
Flags: W
LayerCount: 2
Fore
SplineSet
0 0 m 1,0,-1
 0 200 l 1,1,-1
 200 200 l 1,2,3
 200 200 200 200 200 800 c 1,4,-1
 0 800 l 1,5,-1
 0 1000 l 1,6,7
 0 1000 0 1000 600 1000 c 1,8,-1
 600 800 l 1,9,-1
 400 800 l 1,10,11
 400 800 400 800 400 200 c 1,12,-1
 600 200 l 1,13,-1
 600 0 l 1,14,-1
 0 0 l 1,0,-1
EndSplineSet
EndChar

StartChar: j
Encoding: 106 106 77
Width: 800
GlyphClass: 2
Flags: W
LayerCount: 2
Fore
SplineSet
400 200 m 1,0,-1
 400 0 l 1,1,2
 400 0 400 0 0 0 c 1,3,-1
 0 200 l 1,4,-1
 400 200 l 1,0,-1
400 200 m 1,5,6
 400 200 400 200 400 800 c 1,7,8
 400 800 400 800 0 800 c 1,9,-1
 0 1000 l 1,10,11
 0 1000 0 1000 600 1000 c 1,12,13
 600 1000 600 1000 600 200 c 1,14,-1
 400 200 l 1,5,6
EndSplineSet
EndChar

StartChar: k
Encoding: 107 107 78
Width: 1000
GlyphClass: 2
Flags: W
LayerCount: 2
Fore
SplineSet
600 0 m 1,0,-1
 600 200 l 1,1,-1
 800 200 l 1,2,-1
 800 0 l 1,3,-1
 600 0 l 1,0,-1
0 0 m 1,4,5
 0 0 0 0 0 1000 c 1,6,-1
 200 1000 l 1,7,8
 200 1000 200 1000 200 600 c 1,9,-1
 400 600 l 1,10,-1
 400 400 l 1,11,-1
 600 400 l 1,12,-1
 600 200 l 1,13,-1
 400 200 l 1,14,-1
 400 400 l 1,15,-1
 200 400 l 1,16,-1
 200 0 l 1,17,-1
 0 0 l 1,4,5
400 600 m 1,18,-1
 400 800 l 1,19,-1
 600 800 l 1,20,-1
 600 600 l 1,21,-1
 400 600 l 1,18,-1
600 800 m 1,22,-1
 600 1000 l 1,23,-1
 800 1000 l 1,24,-1
 800 800 l 1,25,-1
 600 800 l 1,22,-1
EndSplineSet
EndChar

StartChar: l
Encoding: 108 108 79
Width: 800
GlyphClass: 2
Flags: W
LayerCount: 2
Fore
SplineSet
600 200 m 1,0,-1
 600 0 l 1,1,2
 600 0 600 0 0 0 c 1,3,4
 0 0 0 0 0 1000 c 1,5,-1
 200 1000 l 1,6,7
 200 1000 200 1000 200 200 c 1,8,-1
 600 200 l 1,0,-1
EndSplineSet
EndChar

StartChar: m
Encoding: 109 109 80
Width: 1200
GlyphClass: 2
Flags: W
LayerCount: 2
Fore
SplineSet
800 0 m 1,0,1
 800 0 800 0 800 600 c 1,2,-1
 600 600 l 1,3,-1
 600 400 l 1,4,-1
 400 400 l 1,5,-1
 400 600 l 1,6,-1
 600 600 l 1,7,-1
 600 800 l 1,8,-1
 800 800 l 1,9,-1
 800 1000 l 1,10,-1
 1000 1000 l 1,11,-1
 1000 0 l 1,12,-1
 800 0 l 1,0,1
0 0 m 1,13,14
 0 0 0 0 0 1000 c 1,15,-1
 200 1000 l 1,16,-1
 200 800 l 1,17,-1
 400 800 l 1,18,-1
 400 600 l 1,19,-1
 200 600 l 1,20,21
 200 600 200 600 200 0 c 1,22,-1
 0 0 l 1,13,14
EndSplineSet
EndChar

StartChar: n
Encoding: 110 110 81
Width: 1000
GlyphClass: 2
Flags: W
LayerCount: 2
Fore
SplineSet
600 0 m 1,0,-1
 600 200 l 1,1,-1
 400 200 l 1,2,3
 400 200 400 200 400 600 c 1,4,-1
 600 600 l 1,5,6
 600 600 600 600 600 1000 c 1,7,-1
 800 1000 l 1,8,-1
 800 0 l 1,9,-1
 600 0 l 1,0,-1
0 0 m 1,10,11
 0 0 0 0 0 1000 c 1,12,-1
 200 1000 l 1,13,-1
 200 800 l 1,14,-1
 400 800 l 1,15,-1
 400 600 l 1,16,-1
 200 600 l 1,17,18
 200 600 200 600 200 0 c 1,19,-1
 0 0 l 1,10,11
EndSplineSet
EndChar

StartChar: o
Encoding: 111 111 82
Width: 1000
GlyphClass: 2
Flags: W
LayerCount: 2
Fore
SplineSet
600 200 m 1,0,-1
 600 0 l 1,1,2
 600 0 600 0 200 0 c 1,3,-1
 200 200 l 1,4,-1
 600 200 l 1,0,-1
600 200 m 1,5,6
 600 200 600 200 600 800 c 1,7,-1
 800 800 l 1,8,9
 800 800 800 800 800 200 c 1,10,-1
 600 200 l 1,5,6
200 200 m 1,11,-1
 0 200 l 1,12,13
 0 200 0 200 0 800 c 1,14,-1
 200 800 l 1,15,16
 200 800 200 800 200 200 c 1,11,-1
600 800 m 1,17,18
 600 800 600 800 200 800 c 1,19,-1
 200 1000 l 1,20,21
 200 1000 200 1000 600 1000 c 1,22,-1
 600 800 l 1,17,18
EndSplineSet
EndChar

StartChar: p
Encoding: 112 112 83
Width: 1000
GlyphClass: 2
Flags: W
LayerCount: 2
Fore
SplineSet
0 0 m 1,0,1
 0 0 0 0 0 1000 c 1,2,3
 0 1000 0 1000 600 1000 c 1,4,-1
 600 800 l 1,5,-1
 800 800 l 1,6,7
 800 800 800 800 800 400 c 1,8,-1
 600 400 l 1,9,10
 600 400 600 400 600 800 c 1,11,12
 600 800 600 800 200 800 c 1,13,14
 200 800 200 800 200 400 c 1,15,16
 200 400 200 400 600 400 c 1,17,-1
 600 200 l 1,18,-1
 200 200 l 1,19,-1
 200 0 l 1,20,-1
 0 0 l 1,0,1
EndSplineSet
EndChar

StartChar: q
Encoding: 113 113 84
Width: 1200
GlyphClass: 2
Flags: W
LayerCount: 2
Fore
SplineSet
800 0 m 1,0,-1
 800 200 l 1,1,-1
 1000 200 l 1,2,-1
 1000 0 l 1,3,-1
 800 0 l 1,0,-1
600 200 m 1,4,-1
 600 0 l 1,5,6
 600 0 600 0 200 0 c 1,7,-1
 200 200 l 1,8,-1
 600 200 l 1,4,-1
600 200 m 1,9,10
 600 200 600 200 600 800 c 1,11,-1
 800 800 l 1,12,13
 800 800 800 800 800 200 c 1,14,-1
 600 200 l 1,9,10
200 200 m 1,15,-1
 0 200 l 1,16,17
 0 200 0 200 0 800 c 1,18,-1
 200 800 l 1,19,20
 200 800 200 800 200 200 c 1,15,-1
600 800 m 1,21,22
 600 800 600 800 200 800 c 1,23,-1
 200 1000 l 1,24,25
 200 1000 200 1000 600 1000 c 1,26,-1
 600 800 l 1,21,22
EndSplineSet
EndChar

StartChar: r
Encoding: 114 114 85
Width: 1000
GlyphClass: 2
Flags: W
LayerCount: 2
Fore
SplineSet
600 0 m 1,0,1
 600 0 600 0 600 400 c 1,2,-1
 800 400 l 1,3,-1
 800 0 l 1,4,-1
 600 0 l 1,0,1
0 0 m 1,5,6
 0 0 0 0 0 1000 c 1,7,8
 0 1000 0 1000 600 1000 c 1,9,-1
 600 800 l 1,10,-1
 800 800 l 1,11,-1
 800 600 l 1,12,-1
 600 600 l 1,13,-1
 600 800 l 1,14,15
 600 800 600 800 200 800 c 1,16,-1
 200 600 l 1,17,18
 200 600 200 600 600 600 c 1,19,-1
 600 400 l 1,20,21
 600 400 600 400 200 400 c 1,22,23
 200 400 200 400 200 0 c 1,24,-1
 0 0 l 1,5,6
EndSplineSet
EndChar

StartChar: s
Encoding: 115 115 86
Width: 1000
GlyphClass: 2
Flags: W
LayerCount: 2
Fore
SplineSet
600 200 m 1,0,-1
 600 0 l 1,1,2
 600 0 600 0 0 0 c 1,3,-1
 0 200 l 1,4,-1
 600 200 l 1,0,-1
600 200 m 1,5,-1
 600 400 l 1,6,-1
 800 400 l 1,7,-1
 800 200 l 1,8,-1
 600 200 l 1,5,-1
600 400 m 1,9,10
 600 400 600 400 200 400 c 1,11,-1
 200 600 l 1,12,13
 200 600 200 600 600 600 c 1,14,-1
 600 400 l 1,9,10
200 600 m 1,15,-1
 0 600 l 1,16,-1
 0 800 l 1,17,-1
 200 800 l 1,18,-1
 200 600 l 1,15,-1
800 1000 m 1,19,-1
 800 800 l 1,20,21
 800 800 800 800 200 800 c 1,22,-1
 200 1000 l 1,23,24
 200 1000 200 1000 800 1000 c 1,19,-1
EndSplineSet
EndChar

StartChar: t
Encoding: 116 116 87
Width: 1200
GlyphClass: 2
Flags: W
LayerCount: 2
Fore
SplineSet
400 0 m 1,0,1
 400 0 400 0 400 800 c 1,2,3
 400 800 400 800 0 800 c 1,4,-1
 0 1000 l 1,5,6
 0 1000 0 1000 1000 1000 c 1,7,-1
 1000 800 l 1,8,9
 1000 800 1000 800 600 800 c 1,10,-1
 600 0 l 1,11,-1
 400 0 l 1,0,1
EndSplineSet
EndChar

StartChar: u
Encoding: 117 117 88
Width: 1000
GlyphClass: 2
Flags: W
LayerCount: 2
Fore
SplineSet
600 200 m 1,0,-1
 600 0 l 1,1,2
 600 0 600 0 200 0 c 1,3,-1
 200 200 l 1,4,-1
 600 200 l 1,0,-1
600 200 m 1,5,6
 600 200 600 200 600 1000 c 1,7,-1
 800 1000 l 1,8,9
 800 1000 800 1000 800 200 c 1,10,-1
 600 200 l 1,5,6
200 200 m 1,11,-1
 0 200 l 1,12,13
 0 200 0 200 0 1000 c 1,14,-1
 200 1000 l 1,15,16
 200 1000 200 1000 200 200 c 1,11,-1
EndSplineSet
EndChar

StartChar: v
Encoding: 118 118 89
Width: 1200
GlyphClass: 2
Flags: W
LayerCount: 2
Fore
SplineSet
400 0 m 1,0,-1
 400 200 l 1,1,-1
 600 200 l 1,2,-1
 600 0 l 1,3,-1
 400 0 l 1,0,-1
600 200 m 1,4,5
 600 200 600 200 600 600 c 1,6,-1
 800 600 l 1,7,-1
 800 200 l 1,8,-1
 600 200 l 1,4,5
400 200 m 1,9,-1
 200 200 l 1,10,11
 200 200 200 200 200 600 c 1,12,-1
 400 600 l 1,13,14
 400 600 400 600 400 200 c 1,9,-1
800 600 m 1,15,16
 800 600 800 600 800 1000 c 1,17,-1
 1000 1000 l 1,18,19
 1000 1000 1000 1000 1000 600 c 1,20,-1
 800 600 l 1,15,16
200 600 m 1,21,-1
 0 600 l 1,22,23
 0 600 0 600 0 1000 c 1,24,-1
 200 1000 l 1,25,26
 200 1000 200 1000 200 600 c 1,21,-1
EndSplineSet
EndChar

StartChar: w
Encoding: 119 119 90
Width: 1200
GlyphClass: 2
Flags: W
LayerCount: 2
Fore
SplineSet
800 0 m 1,0,-1
 800 200 l 1,1,-1
 600 200 l 1,2,-1
 600 400 l 1,3,-1
 800 400 l 1,4,5
 800 400 800 400 800 1000 c 1,6,-1
 1000 1000 l 1,7,-1
 1000 0 l 1,8,-1
 800 0 l 1,0,-1
0 0 m 1,9,10
 0 0 0 0 0 1000 c 1,11,-1
 200 1000 l 1,12,13
 200 1000 200 1000 200 400 c 1,14,-1
 400 400 l 1,15,-1
 400 200 l 1,16,-1
 200 200 l 1,17,-1
 200 0 l 1,18,-1
 0 0 l 1,9,10
400 400 m 1,19,-1
 400 600 l 1,20,-1
 600 600 l 1,21,-1
 600 400 l 1,22,-1
 400 400 l 1,19,-1
EndSplineSet
EndChar

StartChar: x
Encoding: 120 120 91
Width: 1200
GlyphClass: 2
Flags: W
LayerCount: 2
Fore
SplineSet
800 0 m 1,0,-1
 800 200 l 1,1,-1
 1000 200 l 1,2,-1
 1000 0 l 1,3,-1
 800 0 l 1,0,-1
0 0 m 1,4,-1
 0 200 l 1,5,-1
 200 200 l 1,6,-1
 200 0 l 1,7,-1
 0 0 l 1,4,-1
800 200 m 1,8,-1
 600 200 l 1,9,-1
 600 400 l 1,10,-1
 800 400 l 1,11,-1
 800 200 l 1,8,-1
200 200 m 1,12,-1
 200 400 l 1,13,-1
 400 400 l 1,14,-1
 400 200 l 1,15,-1
 200 200 l 1,12,-1
400 400 m 1,16,-1
 400 600 l 1,17,-1
 600 600 l 1,18,-1
 600 400 l 1,19,-1
 400 400 l 1,16,-1
600 600 m 1,20,-1
 600 800 l 1,21,-1
 800 800 l 1,22,-1
 800 600 l 1,23,-1
 600 600 l 1,20,-1
400 600 m 1,24,-1
 200 600 l 1,25,-1
 200 800 l 1,26,-1
 400 800 l 1,27,-1
 400 600 l 1,24,-1
800 800 m 1,28,-1
 800 1000 l 1,29,-1
 1000 1000 l 1,30,-1
 1000 800 l 1,31,-1
 800 800 l 1,28,-1
200 800 m 1,32,-1
 0 800 l 1,33,-1
 0 1000 l 1,34,-1
 200 1000 l 1,35,-1
 200 800 l 1,32,-1
EndSplineSet
EndChar

StartChar: y
Encoding: 121 121 92
Width: 1200
GlyphClass: 2
Flags: W
LayerCount: 2
Fore
SplineSet
400 0 m 1,0,1
 400 0 400 0 400 600 c 1,2,-1
 600 600 l 1,3,-1
 600 0 l 1,4,-1
 400 0 l 1,0,1
600 600 m 1,5,-1
 600 800 l 1,6,-1
 800 800 l 1,7,-1
 800 600 l 1,8,-1
 600 600 l 1,5,-1
400 600 m 1,9,-1
 200 600 l 1,10,-1
 200 800 l 1,11,-1
 400 800 l 1,12,-1
 400 600 l 1,9,-1
800 800 m 1,13,-1
 800 1000 l 1,14,-1
 1000 1000 l 1,15,-1
 1000 800 l 1,16,-1
 800 800 l 1,13,-1
200 800 m 1,17,-1
 0 800 l 1,18,-1
 0 1000 l 1,19,-1
 200 1000 l 1,20,-1
 200 800 l 1,17,-1
EndSplineSet
EndChar

StartChar: z
Encoding: 122 122 93
Width: 1000
GlyphClass: 2
Flags: W
LayerCount: 2
Fore
SplineSet
800 200 m 1,0,-1
 800 0 l 1,1,2
 800 0 800 0 0 0 c 1,3,4
 0 0 0 0 0 400 c 1,5,-1
 200 400 l 1,6,-1
 200 200 l 1,7,-1
 800 200 l 1,0,-1
600 600 m 1,8,-1
 600 400 l 1,9,10
 600 400 600 400 200 400 c 1,11,-1
 200 600 l 1,12,13
 200 600 200 600 600 600 c 1,8,-1
600 600 m 1,14,-1
 600 800 l 1,15,16
 600 800 600 800 0 800 c 1,17,-1
 0 1000 l 1,18,19
 0 1000 0 1000 800 1000 c 1,20,21
 800 1000 800 1000 800 600 c 1,22,-1
 600 600 l 1,14,-1
EndSplineSet
EndChar

StartChar: braceleft
Encoding: 123 123 94
Width: 800
GlyphClass: 2
Flags: W
LayerCount: 2
Fore
SplineSet
400 0 m 1,0,-1
 400 200 l 1,1,-1
 600 200 l 1,2,-1
 600 0 l 1,3,-1
 400 0 l 1,0,-1
400 200 m 1,4,-1
 200 200 l 1,5,-1
 200 400 l 1,6,-1
 400 400 l 1,7,-1
 400 200 l 1,4,-1
200 400 m 1,8,-1
 0 400 l 1,9,-1
 0 600 l 1,10,-1
 200 600 l 1,11,-1
 200 400 l 1,8,-1
200 600 m 1,12,-1
 200 800 l 1,13,-1
 400 800 l 1,14,-1
 400 600 l 1,15,-1
 200 600 l 1,12,-1
400 800 m 1,16,-1
 400 1000 l 1,17,-1
 600 1000 l 1,18,-1
 600 800 l 1,19,-1
 400 800 l 1,16,-1
EndSplineSet
EndChar

StartChar: bar
Encoding: 124 124 95
Width: 400
GlyphClass: 2
Flags: W
LayerCount: 2
Fore
SplineSet
0 0 m 1,0,1
 0 0 0 0 0 1000 c 1,2,-1
 200 1000 l 1,3,-1
 200 0 l 1,4,-1
 0 0 l 1,0,1
EndSplineSet
EndChar

StartChar: braceright
Encoding: 125 125 96
Width: 800
GlyphClass: 2
Flags: W
LayerCount: 2
Fore
SplineSet
0 0 m 1,0,-1
 0 200 l 1,1,-1
 200 200 l 1,2,-1
 200 0 l 1,3,-1
 0 0 l 1,0,-1
200 200 m 1,4,-1
 200 400 l 1,5,-1
 400 400 l 1,6,-1
 400 200 l 1,7,-1
 200 200 l 1,4,-1
400 400 m 1,8,-1
 400 600 l 1,9,-1
 600 600 l 1,10,-1
 600 400 l 1,11,-1
 400 400 l 1,8,-1
400 600 m 1,12,-1
 200 600 l 1,13,-1
 200 800 l 1,14,-1
 400 800 l 1,15,-1
 400 600 l 1,12,-1
200 800 m 1,16,-1
 0 800 l 1,17,-1
 0 1000 l 1,18,-1
 200 1000 l 1,19,-1
 200 800 l 1,16,-1
EndSplineSet
EndChar

StartChar: asciitilde
Encoding: 126 126 97
Width: 1000
GlyphClass: 2
Flags: W
LayerCount: 2
Fore
SplineSet
400 200 m 1,0,-1
 400 400 l 1,1,-1
 600 400 l 1,2,-1
 600 200 l 1,3,-1
 400 200 l 1,0,-1
0 200 m 1,4,-1
 0 400 l 1,5,-1
 200 400 l 1,6,-1
 200 200 l 1,7,-1
 0 200 l 1,4,-1
600 400 m 1,8,-1
 600 600 l 1,9,-1
 800 600 l 1,10,-1
 800 400 l 1,11,-1
 600 400 l 1,8,-1
200 400 m 1,12,-1
 200 600 l 1,13,-1
 400 600 l 1,14,-1
 400 400 l 1,15,-1
 200 400 l 1,12,-1
EndSplineSet
EndChar

